<svg width="60" height="60" viewBox="0 0 60 60" fill="none" xmlns="http://www.w3.org/2000/svg">
<path d="M59.5376 57.3047C59.6842 57.4513 59.8005 57.6254 59.8799 57.817C59.9592 58.0086 60 58.2139 60 58.4212C60 58.6286 59.9591 58.8339 59.8798 59.0254C59.8004 59.217 59.6841 59.391 59.5375 59.5376C59.3908 59.6842 59.2168 59.8005 59.0252 59.8799C58.8336 59.9592 58.6283 60 58.4209 60C58.2136 60 58.0083 59.9591 57.8167 59.8798C57.6252 59.8004 57.4511 59.6841 57.3045 59.5375L30 32.2331L2.69547 59.5375C2.39939 59.8336 1.99781 60 1.57905 60C1.1603 60 0.758679 59.8337 0.46255 59.5376C0.16642 59.2416 3.62795e-05 58.84 5.93224e-09 58.4212C-3.62676e-05 58.0025 0.166279 57.6008 0.462357 57.3047L27.767 30L0.462357 2.69528C0.166279 2.39915 -3.62676e-05 1.99753 5.93224e-09 1.57878C1.79668e-05 1.37143 0.0408754 1.16612 0.12024 0.974563C0.199604 0.783008 0.315921 0.60896 0.46255 0.462357C0.609178 0.315754 0.783247 0.199467 0.974816 0.120136C1.16639 0.0408047 1.37171 -1.79549e-05 1.57905 5.92411e-09C1.99781 3.62795e-05 2.39939 0.16642 2.69547 0.46255L30 27.7669L57.3045 0.46255C57.4511 0.315921 57.6252 0.199604 57.8167 0.12024C58.0083 0.0408754 58.2136 1.79668e-05 58.4209 5.92411e-09C58.6283 -1.79549e-05 58.8336 0.0408047 59.0252 0.120136C59.2168 0.199467 59.3908 0.315754 59.5375 0.462357C59.6841 0.60896 59.8004 0.783008 59.8798 0.974563C59.9591 1.16612 60 1.37143 60 1.57878C60 1.78612 59.9592 1.99144 59.8799 2.18301C59.8005 2.37458 59.6842 2.54865 59.5376 2.69528L32.233 30L59.5376 57.3047Z" fill="white"/>
</svg>
