<?xml version="1.0" encoding="UTF-8" standalone="no"?>
<svg
   version="1.1"
   id="Layer_1"
   width="200"
   viewBox="0 0 650 660"
   enable-background="new 0 0 650 520"
   xml:space="preserve"
   sodipodi:docname="matronas360-log1.svg"
   inkscape:version="1.4 (86a8ad7, 2024-10-11)"
   xmlns:inkscape="http://www.inkscape.org/namespaces/inkscape"
   xmlns:sodipodi="http://sodipodi.sourceforge.net/DTD/sodipodi-0.dtd"
   xmlns="http://www.w3.org/2000/svg"
   xmlns:svg="http://www.w3.org/2000/svg"><defs
   id="defs3" /><sodipodi:namedview
   id="namedview3"
   pagecolor="#ffffff"
   bordercolor="#000000"
   borderopacity="0.25"
   inkscape:showpageshadow="2"
   inkscape:pageopacity="0.0"
   inkscape:pagecheckerboard="0"
   inkscape:deskcolor="#d1d1d1"
   showgrid="false"
   inkscape:zoom="1.780303"
   inkscape:cx="100.26383"
   inkscape:cy="330.28085"
   inkscape:window-width="1163"
   inkscape:window-height="1368"
   inkscape:window-x="-7"
   inkscape:window-y="0"
   inkscape:window-maximized="0"
   inkscape:current-layer="Layer_1" />
<!-- background color -->
<path
   fill="none"
   opacity="1.000000"
   stroke="none"
   d=" M396.000000,521.000000   C264.000000,521.000000 132.500000,521.000000 1.000000,521.000000   C1.000000,347.666656 1.000000,174.333328 1.000000,1.000000   C217.666672,1.000000 434.333344,1.000000 651.000000,1.000000   C651.000000,174.333328 651.000000,347.666656 651.000000,521.000000   C566.166687,521.000000 481.333344,521.000000 396.000000,521.000000  M229.097961,6.492987   C195.732407,1.020514 163.473053,4.943566 133.165268,19.884930   C76.341988,47.898102 47.070686,107.598396 58.779480,170.138779   C65.362976,205.303329 81.627998,236.038574 102.548393,264.574097   C120.855034,289.544434 142.529419,311.525574 164.793945,332.831177   C227.520859,392.856506 290.636688,452.475494 353.635132,512.216797   C363.373779,521.451965 371.203125,520.813110 380.267853,510.709167   C389.279968,500.663879 398.325470,490.634888 407.699524,480.930267   C450.015472,437.122284 496.475159,397.826965 542.100769,357.613800   C563.462402,338.786224 582.541138,317.940918 595.242371,291.991272   C617.020813,247.496094 604.865784,197.119049 564.627136,168.320160   C533.598206,146.112686 498.693817,140.592361 461.785339,147.868088   C431.044189,153.928070 405.910858,169.231094 389.335358,196.573990   C369.188477,229.808212 376.421967,269.819244 406.814545,292.105408   C425.511536,305.815491 447.343750,310.128235 470.035400,310.917450   C472.139465,310.990662 474.363190,310.389069 476.377960,309.670685   C480.209991,308.304199 483.472137,306.062866 482.674438,301.342743   C481.942688,297.012756 478.305237,296.736786 474.686920,296.075714   C462.938477,293.929321 450.896637,292.518005 439.621735,288.826324   C413.857025,280.390320 397.356171,255.065414 400.092926,228.267883   C403.025970,199.548172 419.112885,179.295532 444.924347,167.824890   C480.071350,152.205490 513.903564,157.926132 545.003174,179.072479   C581.377930,203.805710 593.359619,245.583038 576.701233,286.204742   C569.179749,304.545959 557.523193,320.304626 543.108093,333.592529   C516.776794,357.864838 490.155487,381.864380 462.843689,405.020538   C429.063843,433.660614 380.172058,433.655396 346.553345,405.072235   C305.672546,370.314758 265.388947,334.847961 227.840500,296.425873   C188.300400,255.965836 153.869293,211.934784 132.208344,159.031311   C122.292877,134.814346 116.631226,109.742157 118.695892,83.454140   C120.740837,57.417252 131.458450,36.534935 156.648300,25.747507   C170.303696,19.899652 184.941071,18.037991 199.725418,18.534960   C237.415588,19.801897 270.358246,33.435482 297.832458,58.989304   C337.829895,96.191002 352.870453,141.832687 340.260956,195.443726   C331.824524,231.312454 306.684326,258.965118 266.096588,257.393646   C262.902802,257.269989 259.236176,258.984497 256.519684,260.887421   C254.949158,261.987579 253.934494,265.366150 254.354187,267.365723   C254.707504,269.049072 257.309998,270.970795 259.246399,271.446960   C262.245209,272.184418 265.535004,271.988647 268.683350,271.829865   C308.279236,269.833160 338.532562,252.887527 354.892303,215.723099   C372.077118,176.684464 370.600189,136.997894 352.829651,98.890625   C328.513885,46.747841 285.820465,17.554161 229.097961,6.492987  z"
   id="path1" />
<!-- logo color -->
<path
   fill="#d3ab9e"
   opacity="1.000000"
   stroke="none"
   d=" M229.518936,6.597861   C285.820465,17.554161 328.513885,46.747841 352.829651,98.890625   C370.600189,136.997894 372.077118,176.684464 354.892303,215.723099   C338.532562,252.887527 308.279236,269.833160 268.683350,271.829865   C265.535004,271.988647 262.245209,272.184418 259.246399,271.446960   C257.309998,270.970795 254.707504,269.049072 254.354187,267.365723   C253.934494,265.366150 254.949158,261.987579 256.519684,260.887421   C259.236176,258.984497 262.902802,257.269989 266.096588,257.393646   C306.684326,258.965118 331.824524,231.312454 340.260956,195.443726   C352.870453,141.832687 337.829895,96.191002 297.832458,58.989304   C270.358246,33.435482 237.415588,19.801897 199.725418,18.534960   C184.941071,18.037991 170.303696,19.899652 156.648300,25.747507   C131.458450,36.534935 120.740837,57.417252 118.695892,83.454140   C116.631226,109.742157 122.292877,134.814346 132.208344,159.031311   C153.869293,211.934784 188.300400,255.965836 227.840500,296.425873   C265.388947,334.847961 305.672546,370.314758 346.553345,405.072235   C380.172058,433.655396 429.063843,433.660614 462.843689,405.020538   C490.155487,381.864380 516.776794,357.864838 543.108093,333.592529   C557.523193,320.304626 569.179749,304.545959 576.701233,286.204742   C593.359619,245.583038 581.377930,203.805710 545.003174,179.072479   C513.903564,157.926132 480.071350,152.205490 444.924347,167.824890   C419.112885,179.295532 403.025970,199.548172 400.092926,228.267883   C397.356171,255.065414 413.857025,280.390320 439.621735,288.826324   C450.896637,292.518005 462.938477,293.929321 474.686920,296.075714   C478.305237,296.736786 481.942688,297.012756 482.674438,301.342743   C483.472137,306.062866 480.209991,308.304199 476.377960,309.670685   C474.363190,310.389069 472.139465,310.990662 470.035400,310.917450   C447.343750,310.128235 425.511536,305.815491 406.814545,292.105408   C376.421967,269.819244 369.188477,229.808212 389.335358,196.573990   C405.910858,169.231094 431.044189,153.928070 461.785339,147.868088   C498.693817,140.592361 533.598206,146.112686 564.627136,168.320160   C604.865784,197.119049 617.020813,247.496094 595.242371,291.991272   C582.541138,317.940918 563.462402,338.786224 542.100769,357.613800   C496.475159,397.826965 450.015472,437.122284 407.699524,480.930267   C398.325470,490.634888 389.279968,500.663879 380.267853,510.709167   C371.203125,520.813110 363.373779,521.451965 353.635132,512.216797   C290.636688,452.475494 227.520859,392.856506 164.793945,332.831177   C142.529419,311.525574 120.855034,289.544434 102.548393,264.574097   C81.627998,236.038574 65.362976,205.303329 58.779480,170.138779   C47.070686,107.598396 76.341988,47.898102 133.165268,19.884930   C163.473053,4.943566 195.732407,1.020514 229.518936,6.597861  M140.021439,220.485352   C131.221420,204.431076 121.599480,188.763947 113.812927,172.232315   C101.969238,147.086975 95.478943,120.438469 96.322350,92.384750   C96.500015,86.475494 97.419151,80.588531 98.103905,73.595856   C96.657562,75.615288 95.712082,76.715164 95.007454,77.952232   C84.240784,96.854355 78.486786,117.168938 77.998436,138.934753   C77.280930,170.913666 87.007126,199.992371 102.869881,227.282181   C118.819138,254.720871 139.072281,278.899170 161.744812,300.835510   C221.023911,358.189758 280.850281,414.978363 340.446411,472.005005   C345.922546,477.245087 352.453827,480.606903 359.826538,481.704773   C373.092682,483.680237 384.731567,480.146606 394.647888,470.049408   C392.926849,468.556824 391.588745,467.373901 390.227173,466.218628   C345.002502,427.847839 299.270538,390.055359 254.692490,350.947540   C211.068863,312.677094 172.575058,269.596039 140.021439,220.485352  z"
   id="path2" />
<!-- background color -->
<path
   fill="none"
   opacity="1.000000"
   stroke="none"
   d=" M140.223099,220.784027   C172.575058,269.596039 211.068863,312.677094 254.692490,350.947540   C299.270538,390.055359 345.002502,427.847839 390.227173,466.218628   C391.588745,467.373901 392.926849,468.556824 394.647888,470.049408   C384.731567,480.146606 373.092682,483.680237 359.826538,481.704773   C352.453827,480.606903 345.922546,477.245087 340.446411,472.005005   C280.850281,414.978363 221.023911,358.189758 161.744812,300.835510   C139.072281,278.899170 118.819138,254.720871 102.869881,227.282181   C87.007126,199.992371 77.280930,170.913666 77.998436,138.934753   C78.486786,117.168938 84.240784,96.854355 95.007454,77.952232   C95.712082,76.715164 96.657562,75.615288 98.103905,73.595856   C97.419151,80.588531 96.500015,86.475494 96.322350,92.384750   C95.478943,120.438469 101.969238,147.086975 113.812927,172.232315   C121.599480,188.763947 131.221420,204.431076 140.223099,220.784027  z"
   id="path3" />

<path
   d="m 110.48828,633.19336 q -0.3418,-15.9668 -1.61133,-33.69141 -1.26953,-17.77343 -1.51367,-19.72656 -0.24414,-1.95312 -0.3418,-4.00391 H 106.875 l -10.351563,24.60938 q -9.033203,21.58203 -10.644531,26.51367 -1.5625,4.93164 -1.5625,6.29883 h -3.515625 q 0,-2.7832 -5.224609,-16.99219 -5.22461,-14.20898 -10.107422,-27.88086 -4.882813,-13.67187 -5.566406,-14.84375 h -0.292969 q -0.244141,12.59766 -2.636719,33.78906 -2.392578,21.19141 -2.392578,25.92774 h -4.492187 q 0.78125,-3.95508 3.564453,-27.39258 2.832031,-23.48633 2.832031,-36.23047 h 6.738281 q 0,0.78125 2.539063,8.20313 2.58789,7.42187 7.080078,19.9707 l 3.564453,9.96094 q 3.857422,10.64453 5.078125,14.45312 1.220703,3.8086 1.220703,5.12696 h 0.292969 q 0,-3.61329 10.742187,-28.02735 10.742186,-24.46289 10.742186,-29.6875 h 6.64063 q 0,6.29883 1.46484,26.95313 1.46484,20.60547 2.09961,28.02734 l 0.73242,8.64258 z m 51.95313,-4.98047 q -6.49414,6.20117 -16.40625,6.20117 -7.42188,0 -11.42579,-3.27148 -4.0039,-3.32031 -4.0039,-9.66797 0,-7.95899 6.83594,-12.25586 6.88476,-4.29688 25,-4.44336 0.19531,-1.75781 0.19531,-3.4668 0,-6.68945 -3.8086,-9.27734 -3.80859,-2.63672 -10.40039,-2.63672 -7.8125,0 -15.72265,2.00195 l 0.63476,-4.19921 q 7.47071,-2.00196 15.28321,-2.00196 8.44726,0 13.18359,3.51563 4.73633,3.46679 4.73633,11.57226 0,2.63672 -0.29297,7.71485 -0.24414,5.02929 -0.24414,10.00976 0,7.17774 1.12305,15.18555 l -3.90625,0.19531 q -0.48829,-3.02734 -0.48829,-5.17578 z m 0.19531,-20.01953 q -12.89063,0 -20.26367,2.97851 Q 135,614.10156 135,621.91406 q 0,8.69141 11.52344,8.69141 5.27343,0 9.32617,-1.5625 4.10156,-1.5625 6.78711,-4.73633 z m 43.99414,24.70703 q -4.24805,1.26953 -7.27539,1.26953 -8.54492,0 -11.03516,-4.73633 -2.49023,-4.78515 -2.49023,-15.33203 0,-12.79297 0.0976,-22.80273 -2.92968,0 -9.08203,0.29297 l 0.19532,-4.00391 q 5.41992,0.29297 9.32617,0.29297 0,-5.32227 0.58593,-14.11133 l 4.29688,-0.29297 q -0.92773,11.2793 -0.92773,14.4043 4.24804,0 15.72265,-0.48828 l -0.29297,4.19922 q -10.05859,-0.29297 -15.72265,-0.29297 -0.29297,8.54492 -0.29297,20.11719 0,12.69531 2.73437,15.91796 2.78321,3.17383 7.86133,3.17383 1.41602,0 2.92969,-0.24414 1.51367,-0.29297 3.75976,-0.8789 z m 36.62109,-41.79687 q -3.90625,-1.61133 -8.20312,-1.61133 -4.54102,0 -7.91016,2.58789 -3.32031,2.58789 -4.88281,7.51953 0,22.94922 0.39062,33.59375 h -4.78515 q 0.48828,-13.37891 0.48828,-24.02344 0,-11.08398 -1.9043,-22.26562 l 4.29688,-1.12305 q 1.12304,5.81055 1.2207,7.91016 h 0.58594 q 3.02734,-4.29688 6.10351,-6.39649 3.125,-2.09961 6.49414,-2.09961 3.85743,0 9.375,1.61133 z m 26.41602,43.99414 q -8.83789,0 -14.79492,-6.20118 -5.90821,-6.25 -5.90821,-17.08984 0,-12.54883 6.64063,-19.82422 6.64062,-7.27539 16.25976,-7.27539 7.61719,0 14.01368,5.85938 6.39648,5.81054 6.39648,17.72461 0,12.35351 -6.68945,19.58007 -6.64063,7.22657 -15.91797,7.22657 z m 0.8789,-47.11914 q -8.98437,0 -13.18359,6.93359 -4.19922,6.88476 -4.19922,14.69726 0,9.76563 4.78516,15.9668 4.78515,6.20117 12.69531,6.20117 8.93555,0 13.23242,-6.93359 4.29688,-6.93359 4.29688,-14.64844 0,-9.52148 -4.88281,-15.86914 -4.88282,-6.34765 -12.74415,-6.34765 z m 41.11329,4.39453 h 0.0976 q 8.00781,-7.17774 15.91797,-7.17774 8.44727,0 12.69531,3.61328 4.29688,3.61328 4.29688,12.59766 l -0.0488,3.51562 q 0,0.83008 -0.0488,2.49024 0,5.95703 0.0488,9.61914 l 0.0488,16.16211 h -4.88281 q 1.17187,-14.89258 1.17187,-30.9082 0,-7.51954 -4.05273,-10.30274 -4.00391,-2.7832 -10.35157,-2.7832 -8.15429,0 -14.89257,6.29883 -0.0977,3.56445 -0.0977,12.20703 0,6.34765 0.0488,12.01172 l 0.0976,10.35156 q 0,1.02539 0.0488,3.125 h -4.6875 q 0.87891,-18.01758 0.87891,-24.02344 0,-9.76562 -1.95313,-22.36328 l 4.78516,-1.02539 z m 77.14843,35.83984 q -6.49414,6.20117 -16.40625,6.20117 -7.42187,0 -11.42578,-3.27148 -4.0039,-3.32031 -4.0039,-9.66797 0,-7.95899 6.83593,-12.25586 6.88477,-4.29688 25,-4.44336 0.19532,-1.75781 0.19532,-3.4668 0,-6.68945 -3.8086,-9.27734 -3.80859,-2.63672 -10.40039,-2.63672 -7.8125,0 -15.72265,2.00195 l 0.63476,-4.19921 q 7.4707,-2.00196 15.2832,-2.00196 8.44727,0 13.1836,3.51563 4.73633,3.46679 4.73633,11.57226 0,2.63672 -0.29297,7.71485 -0.24414,5.02929 -0.24414,10.00976 0,7.17774 1.12304,15.18555 l -3.90625,0.19531 q -0.48828,-3.02734 -0.48828,-5.17578 z m 0.19532,-20.01953 q -12.89063,0 -20.26368,2.97851 -7.37304,2.92969 -7.37304,10.74219 0,8.69141 11.52343,8.69141 5.27344,0 9.32618,-1.5625 4.10156,-1.5625 6.78711,-4.73633 z m 17.62695,23.38867 1.07422,-4.58984 q 3.27148,1.51367 7.1289,2.19726 3.90625,0.6836 8.88672,0.6836 4.6875,0 7.37305,-2.2461 2.73437,-2.24609 2.73437,-5.81054 0,-2.92969 -1.41601,-5.17579 -1.41602,-2.24609 -6.49414,-4.24804 -5.07813,-2.05078 -9.42383,-4.05274 -4.3457,-2.00195 -6.44531,-4.78515 -2.05078,-2.83203 -2.05078,-6.44532 0,-5.27343 4.19922,-8.3496 4.19921,-3.07618 10.5957,-3.07618 6.98242,0 13.13476,1.80664 l -1.12304,4.10157 q -4.83399,-2.00196 -12.5,-2.00196 -4.78516,0 -7.61719,2.14844 -2.7832,2.14844 -2.7832,5.27344 0,3.56445 2.97851,5.5664 2.97852,2.00196 10.00977,4.88282 7.03125,2.83203 9.91211,5.71289 2.92968,2.88086 2.92968,8.00781 0,6.10352 -4.10156,9.47266 -4.10156,3.32031 -11.32812,3.32031 -8.1543,0 -15.67383,-2.39258 z m 98.04687,-37.40234 q 0,5.61523 -2.7832,9.13086 -2.73437,3.51562 -9.13086,5.5664 v 0.19532 q 6.54297,1.51367 10.5957,5.51757 4.10157,3.95508 4.10157,10.98633 0,11.03516 -11.03516,18.4082 -11.03516,7.42188 -26.31836,8.30079 l -1.51367,-3.90625 q 15.2832,-0.83008 24.85352,-6.39649 9.61914,-5.5664 9.61914,-14.99023 0,-5.61524 -2.2461,-8.83789 -2.24609,-3.22266 -6.93359,-4.93164 -4.63867,-1.70899 -17.1875,-1.70899 l 0.78125,-3.71094 q 6.83594,0 12.5,-1.2207 5.66406,-1.26953 8.05664,-4.19922 2.44141,-2.97851 2.44141,-6.68945 0,-5.51758 -3.41797,-7.95899 -3.36914,-2.4414 -11.08399,-2.4414 -7.76367,0 -14.01367,1.61133 l 0.3418,-4.19922 q 5.95703,-1.51367 14.40429,-1.51367 8.00782,0 12.98829,3.36914 4.98046,3.36914 4.98046,9.61914 z m 21.92383,7.22656 q 2.63672,-3.56445 7.56836,-5.66406 4.98047,-2.14844 10.30274,-2.14844 10.15625,0 15.33203,5.37109 5.17578,5.32227 5.17578,15.33203 0,9.32618 -6.10352,15.23438 -6.10351,5.85937 -15.67383,5.85937 -9.52148,0 -15.23437,-7.66601 -5.66406,-7.71484 -5.66406,-20.01953 0,-37.59766 32.37304,-40.08789 l 0.48829,3.36914 q -13.33008,1.17187 -20.26368,8.49609 -6.93359,7.27539 -8.49609,21.92383 z m 34.17969,13.86719 q 0,-8.34961 -4.6875,-13.1836 -4.63867,-4.88281 -12.79297,-4.88281 -4.39453,0 -9.375,2.34375 -4.98047,2.29492 -7.32422,5.76172 0,11.52344 4.44336,19.0918 4.44336,7.56836 13.13477,7.56836 7.42187,0 12.01172,-4.73633 4.58984,-4.78516 4.58984,-11.96289 z m 18.94531,-7.47071 q 0,-10.15625 5.85938,-18.0664 5.9082,-7.95899 15.52734,-7.95899 9.42383,0 14.89258,7.37305 5.51758,7.37305 5.51758,17.23633 0,11.2793 -5.76172,19.23828 -5.71289,7.95898 -15.86914,7.95898 -9.32617,0 -14.7461,-7.56836 -5.41992,-7.56835 -5.41992,-18.21289 z m 4.19922,-0.73242 q 0,10.00977 4.83399,16.65039 4.83398,6.5918 12.1582,6.5918 7.95898,0 12.1582,-6.64063 4.24805,-6.68945 4.24805,-16.45507 0,-8.39844 -4.58985,-15.23438 -4.54101,-6.88476 -12.54882,-6.88476 -7.8125,0 -12.06055,6.88476 -4.19922,6.83594 -4.19922,15.08789 z"
   id="text3"
   style="font-size:100px;font-family:Candara;dominant-baseline:middle;text-anchor:middle;fill:#d3ab9e"
   aria-label="Matronas 360" />

</svg>
