<svg version="1.1" id="Layer_1" xmlns="http://www.w3.org/2000/svg" xmlns:xlink="http://www.w3.org/1999/xlink"
	  width="200" viewBox="0 0 650 660" enable-background="new 0 0 650 520" xml:space="preserve">
<!-- background color -->
<path fill="none" opacity="1.000000" stroke="none" 
	d="
M396.000000,521.000000 
	C264.000000,521.000000 132.500000,521.000000 1.000000,521.000000 
	C1.000000,347.666656 1.000000,174.333328 1.000000,1.000000 
	C217.666672,1.000000 434.333344,1.000000 651.000000,1.000000 
	C651.000000,174.333328 651.000000,347.666656 651.000000,521.000000 
	C566.166687,521.000000 481.333344,521.000000 396.000000,521.000000 
M229.097961,6.492987 
	C195.732407,1.020514 163.473053,4.943566 133.165268,19.884930 
	C76.341988,47.898102 47.070686,107.598396 58.779480,170.138779 
	C65.362976,205.303329 81.627998,236.038574 102.548393,264.574097 
	C120.855034,289.544434 142.529419,311.525574 164.793945,332.831177 
	C227.520859,392.856506 290.636688,452.475494 353.635132,512.216797 
	C363.373779,521.451965 371.203125,520.813110 380.267853,510.709167 
	C389.279968,500.663879 398.325470,490.634888 407.699524,480.930267 
	C450.015472,437.122284 496.475159,397.826965 542.100769,357.613800 
	C563.462402,338.786224 582.541138,317.940918 595.242371,291.991272 
	C617.020813,247.496094 604.865784,197.119049 564.627136,168.320160 
	C533.598206,146.112686 498.693817,140.592361 461.785339,147.868088 
	C431.044189,153.928070 405.910858,169.231094 389.335358,196.573990 
	C369.188477,229.808212 376.421967,269.819244 406.814545,292.105408 
	C425.511536,305.815491 447.343750,310.128235 470.035400,310.917450 
	C472.139465,310.990662 474.363190,310.389069 476.377960,309.670685 
	C480.209991,308.304199 483.472137,306.062866 482.674438,301.342743 
	C481.942688,297.012756 478.305237,296.736786 474.686920,296.075714 
	C462.938477,293.929321 450.896637,292.518005 439.621735,288.826324 
	C413.857025,280.390320 397.356171,255.065414 400.092926,228.267883 
	C403.025970,199.548172 419.112885,179.295532 444.924347,167.824890 
	C480.071350,152.205490 513.903564,157.926132 545.003174,179.072479 
	C581.377930,203.805710 593.359619,245.583038 576.701233,286.204742 
	C569.179749,304.545959 557.523193,320.304626 543.108093,333.592529 
	C516.776794,357.864838 490.155487,381.864380 462.843689,405.020538 
	C429.063843,433.660614 380.172058,433.655396 346.553345,405.072235 
	C305.672546,370.314758 265.388947,334.847961 227.840500,296.425873 
	C188.300400,255.965836 153.869293,211.934784 132.208344,159.031311 
	C122.292877,134.814346 116.631226,109.742157 118.695892,83.454140 
	C120.740837,57.417252 131.458450,36.534935 156.648300,25.747507 
	C170.303696,19.899652 184.941071,18.037991 199.725418,18.534960 
	C237.415588,19.801897 270.358246,33.435482 297.832458,58.989304 
	C337.829895,96.191002 352.870453,141.832687 340.260956,195.443726 
	C331.824524,231.312454 306.684326,258.965118 266.096588,257.393646 
	C262.902802,257.269989 259.236176,258.984497 256.519684,260.887421 
	C254.949158,261.987579 253.934494,265.366150 254.354187,267.365723 
	C254.707504,269.049072 257.309998,270.970795 259.246399,271.446960 
	C262.245209,272.184418 265.535004,271.988647 268.683350,271.829865 
	C308.279236,269.833160 338.532562,252.887527 354.892303,215.723099 
	C372.077118,176.684464 370.600189,136.997894 352.829651,98.890625 
	C328.513885,46.747841 285.820465,17.554161 229.097961,6.492987 
z"/>
<!-- logo color -->
<path fill="#d3ab9e" opacity="1.000000" stroke="none" 
	d="
M229.518936,6.597861 
	C285.820465,17.554161 328.513885,46.747841 352.829651,98.890625 
	C370.600189,136.997894 372.077118,176.684464 354.892303,215.723099 
	C338.532562,252.887527 308.279236,269.833160 268.683350,271.829865 
	C265.535004,271.988647 262.245209,272.184418 259.246399,271.446960 
	C257.309998,270.970795 254.707504,269.049072 254.354187,267.365723 
	C253.934494,265.366150 254.949158,261.987579 256.519684,260.887421 
	C259.236176,258.984497 262.902802,257.269989 266.096588,257.393646 
	C306.684326,258.965118 331.824524,231.312454 340.260956,195.443726 
	C352.870453,141.832687 337.829895,96.191002 297.832458,58.989304 
	C270.358246,33.435482 237.415588,19.801897 199.725418,18.534960 
	C184.941071,18.037991 170.303696,19.899652 156.648300,25.747507 
	C131.458450,36.534935 120.740837,57.417252 118.695892,83.454140 
	C116.631226,109.742157 122.292877,134.814346 132.208344,159.031311 
	C153.869293,211.934784 188.300400,255.965836 227.840500,296.425873 
	C265.388947,334.847961 305.672546,370.314758 346.553345,405.072235 
	C380.172058,433.655396 429.063843,433.660614 462.843689,405.020538 
	C490.155487,381.864380 516.776794,357.864838 543.108093,333.592529 
	C557.523193,320.304626 569.179749,304.545959 576.701233,286.204742 
	C593.359619,245.583038 581.377930,203.805710 545.003174,179.072479 
	C513.903564,157.926132 480.071350,152.205490 444.924347,167.824890 
	C419.112885,179.295532 403.025970,199.548172 400.092926,228.267883 
	C397.356171,255.065414 413.857025,280.390320 439.621735,288.826324 
	C450.896637,292.518005 462.938477,293.929321 474.686920,296.075714 
	C478.305237,296.736786 481.942688,297.012756 482.674438,301.342743 
	C483.472137,306.062866 480.209991,308.304199 476.377960,309.670685 
	C474.363190,310.389069 472.139465,310.990662 470.035400,310.917450 
	C447.343750,310.128235 425.511536,305.815491 406.814545,292.105408 
	C376.421967,269.819244 369.188477,229.808212 389.335358,196.573990 
	C405.910858,169.231094 431.044189,153.928070 461.785339,147.868088 
	C498.693817,140.592361 533.598206,146.112686 564.627136,168.320160 
	C604.865784,197.119049 617.020813,247.496094 595.242371,291.991272 
	C582.541138,317.940918 563.462402,338.786224 542.100769,357.613800 
	C496.475159,397.826965 450.015472,437.122284 407.699524,480.930267 
	C398.325470,490.634888 389.279968,500.663879 380.267853,510.709167 
	C371.203125,520.813110 363.373779,521.451965 353.635132,512.216797 
	C290.636688,452.475494 227.520859,392.856506 164.793945,332.831177 
	C142.529419,311.525574 120.855034,289.544434 102.548393,264.574097 
	C81.627998,236.038574 65.362976,205.303329 58.779480,170.138779 
	C47.070686,107.598396 76.341988,47.898102 133.165268,19.884930 
	C163.473053,4.943566 195.732407,1.020514 229.518936,6.597861 
M140.021439,220.485352 
	C131.221420,204.431076 121.599480,188.763947 113.812927,172.232315 
	C101.969238,147.086975 95.478943,120.438469 96.322350,92.384750 
	C96.500015,86.475494 97.419151,80.588531 98.103905,73.595856 
	C96.657562,75.615288 95.712082,76.715164 95.007454,77.952232 
	C84.240784,96.854355 78.486786,117.168938 77.998436,138.934753 
	C77.280930,170.913666 87.007126,199.992371 102.869881,227.282181 
	C118.819138,254.720871 139.072281,278.899170 161.744812,300.835510 
	C221.023911,358.189758 280.850281,414.978363 340.446411,472.005005 
	C345.922546,477.245087 352.453827,480.606903 359.826538,481.704773 
	C373.092682,483.680237 384.731567,480.146606 394.647888,470.049408 
	C392.926849,468.556824 391.588745,467.373901 390.227173,466.218628 
	C345.002502,427.847839 299.270538,390.055359 254.692490,350.947540 
	C211.068863,312.677094 172.575058,269.596039 140.021439,220.485352 
z"/>
<!-- background color -->
<path fill="none" opacity="1.000000" stroke="none" 
	d="
M140.223099,220.784027 
	C172.575058,269.596039 211.068863,312.677094 254.692490,350.947540 
	C299.270538,390.055359 345.002502,427.847839 390.227173,466.218628 
	C391.588745,467.373901 392.926849,468.556824 394.647888,470.049408 
	C384.731567,480.146606 373.092682,483.680237 359.826538,481.704773 
	C352.453827,480.606903 345.922546,477.245087 340.446411,472.005005 
	C280.850281,414.978363 221.023911,358.189758 161.744812,300.835510 
	C139.072281,278.899170 118.819138,254.720871 102.869881,227.282181 
	C87.007126,199.992371 77.280930,170.913666 77.998436,138.934753 
	C78.486786,117.168938 84.240784,96.854355 95.007454,77.952232 
	C95.712082,76.715164 96.657562,75.615288 98.103905,73.595856 
	C97.419151,80.588531 96.500015,86.475494 96.322350,92.384750 
	C95.478943,120.438469 101.969238,147.086975 113.812927,172.232315 
	C121.599480,188.763947 131.221420,204.431076 140.223099,220.784027 
z"/>

<text x="335" y="610" font-family="Candara" font-size="100" fill="#d3ab9e" text-anchor="middle" dominant-baseline="middle">Matronas 360</text>

</svg>