<svg width="130" height="100" viewBox="0 0 130 100" fill="none" xmlns="http://www.w3.org/2000/svg">
<path d="M0 7.14286C0 5.24845 0.76091 3.43164 2.11534 2.0921C3.46977 0.75255 5.30677 0 7.22222 0H122.778C124.693 0 126.53 0.75255 127.885 2.0921C129.239 3.43164 130 5.24845 130 7.14286C130 9.03726 129.239 10.8541 127.885 12.1936C126.53 13.5332 124.693 14.2857 122.778 14.2857H7.22222C5.30677 14.2857 3.46977 13.5332 2.11534 12.1936C0.76091 10.8541 0 9.03726 0 7.14286ZM0 50C0 48.1056 0.76091 46.2888 2.11534 44.9492C3.46977 43.6097 5.30677 42.8571 7.22222 42.8571H122.778C124.693 42.8571 126.53 43.6097 127.885 44.9492C129.239 46.2888 130 48.1056 130 50C130 51.8944 129.239 53.7112 127.885 55.0508C126.53 56.3903 124.693 57.1429 122.778 57.1429H7.22222C5.30677 57.1429 3.46977 56.3903 2.11534 55.0508C0.76091 53.7112 0 51.8944 0 50ZM7.22222 85.7143C5.30677 85.7143 3.46977 86.4668 2.11534 87.8064C0.76091 89.1459 0 90.9627 0 92.8571C0 94.7515 0.76091 96.5684 2.11534 97.9079C3.46977 99.2475 5.30677 100 7.22222 100H122.778C124.693 100 126.53 99.2475 127.885 97.9079C129.239 96.5684 130 94.7515 130 92.8571C130 90.9627 129.239 89.1459 127.885 87.8064C126.53 86.4668 124.693 85.7143 122.778 85.7143H7.22222Z" fill="#D3AB9E"/>
</svg>
