<svg width="61" height="61" viewBox="0 0 61 61" fill="none" xmlns="http://www.w3.org/2000/svg">
<path fill-rule="evenodd" clip-rule="evenodd" d="M30.8474 45.4067C39.1317 45.4067 45.8474 38.691 45.8474 30.4067C45.8474 22.1225 39.1317 15.4067 30.8474 15.4067C22.5632 15.4067 15.8474 22.1225 15.8474 30.4067C15.8474 38.691 22.5632 45.4067 30.8474 45.4067ZM30.8474 40.4067C36.3702 40.4067 40.8474 35.9295 40.8474 30.4067C40.8474 24.8839 36.3702 20.4067 30.8474 20.4067C25.3246 20.4067 20.8474 24.8839 20.8474 30.4067C20.8474 35.9295 25.3246 40.4067 30.8474 40.4067Z" fill="#2F4858"/>
<path d="M45.8474 12.9067C44.4667 12.9067 43.3474 14.026 43.3474 15.4067C43.3474 16.7874 44.4667 17.9067 45.8474 17.9067C47.2282 17.9067 48.3474 16.7874 48.3474 15.4067C48.3474 14.026 47.2282 12.9067 45.8474 12.9067Z" fill="#2F4858"/>
<path fill-rule="evenodd" clip-rule="evenodd" d="M4.98234 11.0969C3.34744 14.3056 3.34744 18.506 3.34744 26.9067V33.9067C3.34744 42.3075 3.34744 46.508 4.98234 49.7165C6.42044 52.539 8.71514 54.8337 11.5376 56.2717C14.7463 57.9067 18.9467 57.9067 27.3474 57.9067H34.3474C42.7482 57.9067 46.9487 57.9067 50.1572 56.2717C52.9797 54.8337 55.2744 52.539 56.7124 49.7165C58.3474 46.508 58.3474 42.3075 58.3474 33.9067V26.9067C58.3474 18.506 58.3474 14.3056 56.7124 11.0969C55.2744 8.27444 52.9797 5.97974 50.1572 4.54164C46.9487 2.90674 42.7482 2.90674 34.3474 2.90674H27.3474C18.9467 2.90674 14.7463 2.90674 11.5376 4.54164C8.71514 5.97974 6.42044 8.27444 4.98234 11.0969ZM34.3474 7.90674H27.3474C23.0645 7.90674 20.1531 7.91064 17.9026 8.09449C15.7105 8.27359 14.5895 8.59821 13.8075 8.99666C11.9259 9.95541 10.3961 11.4852 9.43737 13.3668C9.03892 14.1488 8.71429 15.2698 8.53519 17.4619C8.35134 19.7124 8.34744 22.6238 8.34744 26.9067V33.9067C8.34744 38.1897 8.35134 41.101 8.53519 43.3515C8.71429 45.5437 9.03892 46.6647 9.43737 47.4467C10.3961 49.3282 11.9259 50.858 13.8075 51.8167C14.5895 52.2152 15.7105 52.54 17.9026 52.719C20.1531 52.9027 23.0645 52.9067 27.3474 52.9067H34.3474C38.6304 52.9067 41.5417 52.9027 43.7922 52.719C45.9844 52.54 47.1054 52.2152 47.8874 51.8167C49.7689 50.858 51.2987 49.3282 52.2574 47.4467C52.6559 46.6647 52.9807 45.5437 53.1597 43.3515C53.3434 41.101 53.3474 38.1897 53.3474 33.9067V26.9067C53.3474 22.6238 53.3434 19.7124 53.1597 17.4619C52.9807 15.2698 52.6559 14.1488 52.2574 13.3668C51.2987 11.4852 49.7689 9.95541 47.8874 8.99666C47.1054 8.59821 45.9844 8.27359 43.7922 8.09449C41.5417 7.91064 38.6304 7.90674 34.3474 7.90674Z" fill="#2F4858"/>
</svg>
