<svg width="130" height="130" viewBox="0 0 130 130" fill="none" xmlns="http://www.w3.org/2000/svg">
<path d="M2 64.7892C2 99.4664 30.1117 127.578 64.7892 127.578C99.4664 127.578 127.578 99.4664 127.578 64.7892C127.578 30.1117 99.4664 2 64.7892 2C30.1117 2 2 30.1117 2 64.7892Z" stroke="white" stroke-width="4" stroke-linecap="round" stroke-linejoin="round"/>
<path d="M71.0681 2.30957C71.0681 2.30957 89.9049 27.1152 89.9049 64.7885C89.9049 102.462 71.0681 127.268 71.0681 127.268" stroke="white" stroke-width="4" stroke-linecap="round" stroke-linejoin="round"/>
<path d="M58.5103 127.268C58.5103 127.268 39.6735 102.462 39.6735 64.7885C39.6735 27.1152 58.5103 2.30957 58.5103 2.30957" stroke="white" stroke-width="4" stroke-linecap="round" stroke-linejoin="round"/>
<path d="M5.95345 86.7654H123.625" stroke="white" stroke-width="4" stroke-linecap="round" stroke-linejoin="round"/>
<path d="M5.95345 42.813H123.625" stroke="white" stroke-width="4" stroke-linecap="round" stroke-linejoin="round"/>
</svg>
