<svg width="128" height="128" viewBox="0 0 128 128" fill="none" xmlns="http://www.w3.org/2000/svg">
<path d="M127.429 63.7146C127.429 28.526 98.9033 0 63.7146 0C28.526 0 0 28.526 0 63.7146C0 98.9033 28.526 127.429 63.7146 127.429C98.9033 127.429 127.429 98.9033 127.429 63.7146Z" fill="#2f4858"/>
<path d="M31.8576 93.2123L36.429 76.2148C32.7423 69.5934 31.571 61.8668 33.13 54.4529C34.689 47.0389 38.8738 40.4349 44.9164 35.8526C50.9591 31.2705 58.4542 29.0174 66.0266 29.5069C73.5989 29.9963 80.7404 33.1956 86.1406 38.5176C91.5409 43.8396 94.8377 50.9273 95.4259 58.48C96.0141 66.0328 93.8545 73.5441 89.3433 79.6356C84.832 85.7269 78.2716 89.9899 70.8662 91.6422C63.4607 93.2944 55.7068 92.2252 49.0273 88.6306L31.8576 93.2123ZM49.8551 82.27L50.917 82.8988C55.7551 85.7617 61.4059 86.9465 66.989 86.2684C72.5719 85.5902 77.7734 83.0875 81.7828 79.15C85.7923 75.2124 88.3844 70.0615 89.1552 64.4997C89.9261 58.9378 88.8325 53.2776 86.0447 48.4011C83.2569 43.5246 78.9317 39.7057 73.7429 37.5395C68.5541 35.3734 62.7935 34.9816 57.3584 36.4254C51.9234 37.8691 47.1194 41.0673 43.6951 45.5214C40.2707 49.9754 38.4183 55.4352 38.4267 61.05C38.4222 65.7056 39.7118 70.2712 42.1522 74.2383L42.8181 75.3344L40.2625 84.8214L49.8551 82.27Z" fill="white"/>
<path fill-rule="evenodd" clip-rule="evenodd" d="M75.6273 65.4156C75.0048 64.9143 74.2759 64.5615 73.4961 64.384C72.7165 64.2066 71.9065 64.2091 71.1278 64.3914C69.9581 64.8766 69.2021 66.7092 68.4462 67.6256C68.2869 67.8453 68.0527 67.9993 67.7875 68.0589C67.5224 68.1185 67.2448 68.0794 67.0065 67.9489C62.7236 66.2744 59.1338 63.2033 56.8199 59.2346C56.6224 58.987 56.529 58.6725 56.5592 58.3576C56.5895 58.0425 56.741 57.7515 56.9817 57.5456C57.8248 56.7124 58.4439 55.6804 58.7815 54.5451C58.8565 53.2928 58.5691 52.0454 57.9537 50.9515C57.4779 49.4181 56.5723 48.0526 55.3441 47.0166C54.7106 46.7322 54.008 46.6368 53.3215 46.742C52.6349 46.8473 51.9935 47.1484 51.4745 47.6095C50.5737 48.3854 49.8587 49.3532 49.3822 50.4415C48.9055 51.53 48.6796 52.7112 48.721 53.8982C48.7236 54.5648 48.8084 55.2287 48.9729 55.8747C49.3908 57.4269 50.0335 58.9099 50.8807 60.2768C51.4918 61.3238 52.1587 62.3375 52.8784 63.3134C55.2172 66.5188 58.1572 69.2403 61.5352 71.327C63.2303 72.3873 65.0419 73.2495 66.9344 73.8964C68.9004 74.786 71.0709 75.1275 73.2156 74.8845C74.4375 74.7 75.5953 74.2183 76.587 73.4819C77.5788 72.7457 78.374 71.7773 78.9029 70.6621C79.2135 69.9885 79.3079 69.2353 79.1727 68.5061C78.8489 67.0147 76.851 66.1343 75.6273 65.4156Z" fill="white"/>
</svg>
